#!OML:ASF I:\Actors\actors\Patient Classification 1\Patient 1\Session 1\Subject1.ASF
:FULLY-SPECIFIED
:DEGREES
1768
root 0.501592 17.5254 9.36655 12.81 -2.57932 -11.2852
lowerback 3.66225 -2.0613 2.44472
upperback -6.60641 -2.26528 4.27225
thorax -8.95683 -1.11241 3.42385
lowerneck -7.01779 -14.8374 -13.5778
upperneck 22.8267 -22.9688 15.0219
head 12.0632 -10.4104 4.24448
rclavicle 4.95067e-014 -8.15017e-014
rhumerus -27.0661 23.7628 -78.4214
rradius 72.855
rwrist -9.02218
rhand 5.22447 -21.8424
rfingers 7.12502
rthumb 30.5841 -49.3223
lclavicle 4.95067e-014 -8.15017e-014
lhumerus 5.86104 -22.2052 72.2775
lradius 59.5661
lwrist 20.9668
lhand -37.5974 -28.4859
lfingers 7.12502
lthumb -10.651 1.22415
rfemur -10.9349 19.4919 27.175
rtibia 7.05228
rfoot -10.8704 -18.6959
rtoes -1.5366
lfemur 5.57545 -55.0001 -9.74918
ltibia -5.07632
lfoot -41.5627 61.527
ltoes 22.4378
1769
root 0.498309 17.53 9.36476 12.9378 -2.5418 -10.836
lowerback 3.53151 -2.11534 2.08113
upperback -6.70534 -2.37452 4.22029
thorax -8.96896 -1.14342 3.582
lowerneck -7.24542 -14.6345 -13.1598
upperneck 23.0792 -22.5495 14.3579
head 11.9775 -10.2289 4.02178
rclavicle -2.34193e-015 3.45885e-014
rhumerus -27.5791 22.6805 -79.1392
rradius 74.0263
rwrist -9.90951
rhand 4.9056 -21.7787
rfingers 7.12502
rthumb 30.2799 -49.3149
lclavicle -2.34193e-015 3.45885e-014
lhumerus 5.74334 -22.3245 72.2853
lradius 59.5259
lwrist 20.9918
lhand -37.6915 -28.3732
lfingers 7.12502
lthumb -10.7417 1.33212
rfemur -11.1323 19.6716 26.5648
rtibia 7.01983
rfoot -10.8933 -19.0092
rtoes -1.31109
lfemur 5.04857 -55.0034 -9.83739
ltibia -4.96382
lfoot -41.3939 61.4004
ltoes 22.3613
1770
root 0.494265 17.5344 9.36511 13.0181 -2.54945 -10.4124
lowerback 3.40952 -2.14056 1.74535
upperback -6.77887 -2.44618 4.11735
thorax -8.96244 -1.15986 3.66487
lowerneck -7.48235 -14.4198 -12.8432
upperneck 23.3064 -22.2002 14.0327
head 11.965 -10.0565 3.91775
rclavicle -2.01425e-014 -2.38542e-015
rhumerus -28.2454 21.4455 -79.8694
rradius 75.4431
rwrist -10.7302
rhand 3.82973 -21.9098
rfingers 7.12502
rthumb 29.2531 -49.6298
lclavicle -2.01425e-014 -2.38542e-015
lhumerus 5.68111 -22.4762 72.2643
lradius 59.4561
lwrist 20.9897
lhand -37.7435 -28.2204
lfingers 7.12502
lthumb -10.7919 1.48238
rfemur -11.2676 19.8199 26.0096
rtibia 6.99386
rfoot -10.9264 -19.2484
rtoes -1.15037
lfemur 4.84247 -55.448 -10.2021
ltibia -4.79137
lfoot -42.4102 61.4185
ltoes 22.9243
1771
root 0.493583 17.5339 9.36369 12.9764 -2.46289 -10.3944
lowerback 3.44637 -2.15908 1.91423
upperback -6.80637 -2.45734 4.08277
thorax -9.02314 -1.17751 3.53833
lowerneck -7.82444 -14.1697 -12.5723
upperneck 23.5295 -21.8389 13.8917
head 12.0055 -9.85875 3.87968
rclavicle 1.20203e-014 7.55382e-015
rhumerus -29.0592 19.9775 -80.5449
rradius 77.1964
rwrist -11.6863
rhand 2.35379 -22.1461
rfingers 7.12502
rthumb 27.8429 -50.103
lclavicle 1.20203e-014 7.55382e-015
lhumerus 5.66937 -22.6629 72.272
lradius 59.3765
lwrist 21.0359
lhand -37.7084 -28.1878
lfingers 7.12502
lthumb -10.758 1.51668
rfemur -11.2031 19.765 26.0174
rtibia 6.94783
rfoot -10.9625 -19.3
rtoes -1.04261
lfemur 4.92443 -55.6462 -10.2883
ltibia -4.77459
lfoot -42.6859 61.4387
ltoes 23.0917
1772
root 0.493775 17.5327 9.36109 12.9734 -2.30672 -10.3636
lowerback 3.46297 -2.18296 2.0817
upperback -6.86109 -2.47441 4.06344
thorax -9.1012 -1.19729 3.43003
lowerneck -8.29925 -13.905 -12.3102
upperneck 23.7754 -21.4502 13.7591
head 12.0813 -9.6396 3.84132
rclavicle 1.01877e-015 3.57812e-015
rhumerus -30.0061 18.0933 -81.0095
rradius 79.39
rwrist -11.9538
rhand 2.19552 -22.8358
rfingers 7.12502
rthumb 27.6916 -50.8171
lclavicle 1.01877e-015 3.57812e-015
lhumerus 5.60645 -22.8552 72.3855
lradius 59.3591
lwrist 21.0458
lhand -37.6137 -28.1985
lfingers 7.12502
lthumb -10.6667 1.51073
rfemur -11.1936 19.6456 25.9901
rtibia 6.90096
rfoot -10.9912 -19.3452
rtoes -0.944931
lfemur 4.74857 -55.5709 -10.1473
ltibia -4.78832
lfoot -42.0285 61.4102
ltoes 22.7021
1773
root 0.492878 17.5324 9.35907 12.9819 -2.1585 -10.323
lowerback 3.47501 -2.20239 2.19983
upperback -6.9329 -2.48789 4.05773
thorax -9.19297 -1.21137 3.36428
lowerneck -8.85792 -13.595 -11.8955
upperneck 24.0363 -20.9527 13.4187
head 12.1167 -9.37479 3.72202
rclavicle -5.38955e-014 4.45278e-014
rhumerus -31.1607 16.3537 -81.5611
rradius 81.6804
rwrist -13.1559
rhand 0.374564 -22.8096
rfingers 7.12502
rthumb 25.9491 -51.0583
lclavicle -5.38955e-014 4.45278e-014
lhumerus 5.5152 -23.0229 72.5298
lradius 59.3439
lwrist 20.9101
lhand -37.5886 -28.2297
lfingers 7.12502
lthumb -10.6425 1.48079
rfemur -11.1935 19.5701 25.9548
rtibia 6.8624
rfoot -10.9779 -19.43
rtoes -1.11681
lfemur 4.53793 -55.4287 -9.97805
ltibia -4.81398
lfoot -41.3786 61.3021
ltoes 22.4222
1774
root 0.490424 17.5336 9.35845 12.9449 -2.03863 -10.3094
lowerback 3.49961 -2.24711 2.24583
upperback -6.97394 -2.53834 4.102
thorax -9.25164 -1.23689 3.39541
lowerneck -9.46084 -13.1504 -11.258
upperneck 24.2692 -20.2165 12.8372
head 12.0595 -9.00902 3.52666
rclavicle -9.98893e-015 6.75868e-015
rhumerus -32.1251 14.8139 -82.0668
rradius 83.5363
rwrist -13.7438
rhand -1.26728 -22.4305
rfingers 7.12502
rthumb 24.376 -50.9001
lclavicle -9.98893e-015 6.75868e-015
lhumerus 5.43154 -23.0738 72.6641
lradius 59.2712
lwrist 20.7285
lhand -37.6698 -28.4534
lfingers 7.12502
lthumb -10.7208 1.25306
rfemur -11.136 19.5147 25.9769
rtibia 6.83976
rfoot -10.9778 -19.5286
rtoes -1.30044
lfemur 4.46183 -55.2637 -9.89295
ltibia -4.84659
lfoot -40.913 61.1375
ltoes 22.378
